<svg version="1.1" id="Layer_1" xmlns="http://www.w3.org/2000/svg" xmlns:xlink="http://www.w3.org/1999/xlink" x="0px" y="0px"
	 width="100%" viewBox="0 0 2000 2000" enable-background="new 0 0 2000 2000" xml:space="preserve">
<path fill="#47704C" opacity="1.000000" stroke="none" 
	d="
M1368.000000,2001.000000 
	C912.000000,2001.000000 456.500000,2001.000000 1.000000,2001.000000 
	C1.000000,1334.333374 1.000000,667.666687 1.000000,1.000000 
	C667.666687,1.000000 1334.333374,1.000000 2001.000000,1.000000 
	C2001.000000,667.666687 2001.000000,1334.333374 2001.000000,2001.000000 
	C1790.166626,2001.000000 1579.333374,2001.000000 1368.000000,2001.000000 
M1647.822754,521.398254 
	C1646.098877,519.280334 1644.789917,516.114990 1642.574463,515.237305 
	C1635.396606,512.393250 1628.019897,509.662323 1620.464966,508.270874 
	C1613.341064,506.958771 1605.897827,507.274536 1598.589478,507.087250 
	C1569.673462,506.346130 1540.757324,505.566833 1511.836792,505.049225 
	C1496.368286,504.772369 1480.890747,504.982086 1465.417358,505.006104 
	C1454.385010,505.023224 1443.826172,506.074707 1433.739380,511.831177 
	C1423.823608,517.489807 1416.525146,524.761414 1412.796753,535.440247 
	C1411.739380,538.468689 1411.646729,541.834045 1411.020142,545.697754 
	C1410.957886,546.132446 1410.895630,546.567078 1410.500732,547.354187 
	C1410.370972,548.251099 1410.241333,549.148010 1410.035645,550.912292 
	C1409.968140,552.942139 1409.900757,554.971924 1409.500610,557.354187 
	C1409.370972,558.251099 1409.241211,559.148010 1409.046387,560.683655 
	C1409.071289,561.110291 1409.096069,561.536865 1408.309204,562.200806 
	C1405.333862,562.466797 1402.361084,562.924072 1399.382690,562.963623 
	C1389.388306,563.096558 1379.389648,562.957397 1369.396851,563.144653 
	C1339.771362,563.699707 1310.146851,564.317871 1280.524536,565.023499 
	C1275.625854,565.140198 1273.388550,562.930115 1272.258545,558.314209 
	C1269.446533,546.827942 1266.465454,535.374634 1263.191284,524.012146 
	C1259.687012,511.850922 1255.934937,499.753754 1251.944336,487.743805 
	C1250.514893,483.441803 1249.185059,478.627899 1243.304199,476.727600 
	C1237.034790,469.566650 1229.008179,466.040680 1219.623779,466.037292 
	C1074.462769,465.984985 929.301819,465.995972 784.140808,466.009491 
	C771.632751,466.010651 761.960815,472.992249 757.938843,484.960785 
	C755.047791,493.563904 752.039673,502.146362 749.628662,510.888275 
	C744.545959,529.317200 739.772217,547.832092 735.001709,566.345276 
	C734.283630,569.131897 732.899170,570.009216 730.132629,570.040649 
	C708.012207,570.292175 685.892578,570.990234 663.773926,570.943542 
	C568.490417,570.742615 473.207367,570.330261 377.924103,570.006348 
	C366.591370,569.967834 355.256195,569.861023 343.926056,570.037964 
	C331.805786,570.227234 319.516937,569.543579 307.606903,571.304993 
	C278.711243,575.578369 254.510834,588.872314 236.303284,612.203674 
	C220.263794,632.756775 212.507248,656.406494 212.173050,682.132751 
	C211.773239,712.908997 212.942322,743.701843 212.955368,774.487732 
	C213.041672,978.146423 212.951660,1181.805176 213.126892,1385.463745 
	C213.136810,1396.981812 214.019226,1408.681274 216.165787,1419.978882 
	C221.239212,1446.681152 234.350494,1468.683472 257.309204,1484.093628 
	C279.087189,1498.711060 303.610291,1503.305054 329.554474,1503.500366 
	C329.554474,1495.487793 329.554474,1487.460327 329.554474,1479.320801 
	C327.974915,1479.192505 326.826843,1479.003540 325.681946,1479.020996 
	C312.297302,1479.225220 299.378387,1476.858154 286.890930,1472.069946 
	C274.899017,1467.471680 264.481842,1460.468872 256.356873,1450.555054 
	C242.303238,1433.407471 237.129807,1412.956787 237.109802,1391.395508 
	C236.924118,1191.236938 237.039398,991.077942 236.955704,790.919128 
	C236.943741,762.299866 236.106979,733.680725 236.113159,705.061646 
	C236.115784,692.992065 236.743973,680.857727 238.108261,668.869019 
	C239.983261,652.392273 246.783844,637.664490 257.528778,625.100037 
	C275.635956,603.926636 299.164612,594.105225 326.777954,594.065918 
	C343.563721,594.042053 360.350250,594.944153 377.136749,594.955383 
	C499.965210,595.037720 622.793762,594.999695 745.622314,594.999695 
	C747.593140,594.999695 749.564026,594.999695 751.788208,594.999695 
	C754.139038,586.980835 756.458008,579.414490 758.571960,571.791260 
	C763.726135,553.204895 768.825745,534.603149 773.869019,515.986328 
	C777.481018,502.653107 787.215820,495.007538 800.890320,495.004150 
	C843.555298,494.993652 886.220337,495.000000 928.885315,495.000000 
	C1020.215088,495.000031 1111.544800,494.973785 1202.874634,495.033783 
	C1214.205078,495.041229 1223.660034,499.209991 1229.145630,509.612671 
	C1231.641602,514.345642 1233.413086,519.572815 1234.781372,524.768494 
	C1240.363281,545.965454 1245.696289,567.228394 1251.029053,588.490051 
	C1251.808472,591.597534 1252.981201,593.180908 1256.654297,593.085449 
	C1276.602295,592.567078 1296.556885,592.280579 1316.510742,592.022278 
	C1326.342163,591.894958 1336.177246,592.085571 1346.009277,591.983704 
	C1373.962280,591.694153 1401.914551,591.334412 1429.866699,590.971802 
	C1431.129150,590.955444 1432.387695,590.641785 1434.003174,590.417236 
	C1434.003174,579.765320 1433.611816,569.432007 1434.102905,559.140808 
	C1434.707886,546.463501 1439.192261,537.738953 1450.908447,534.652954 
	C1454.699951,533.654297 1458.724731,533.049988 1462.636353,533.081238 
	C1481.590576,533.232666 1500.543457,533.624512 1519.495361,534.004578 
	C1532.949829,534.274414 1546.400757,534.705688 1559.855103,534.984375 
	C1578.140381,535.363159 1596.426270,535.759338 1614.713989,535.969299 
	C1628.604370,536.128784 1636.639648,541.592407 1638.756104,555.133240 
	C1640.357666,565.379395 1639.664673,575.983521 1640.004395,586.427979 
	C1640.072388,588.514893 1640.192749,590.600098 1640.284668,592.592407 
	C1650.512329,593.420593 1660.157349,595.350342 1669.605957,594.645447 
	C1679.160400,593.932617 1688.409058,594.200195 1697.677856,596.038635 
	C1717.138306,599.898560 1732.841187,609.909058 1745.166260,625.393738 
	C1760.284058,644.386780 1765.801270,666.477356 1765.936279,690.210571 
	C1765.990112,699.661621 1765.044678,709.116638 1765.042358,718.569946 
	C1764.987793,942.061218 1765.035156,1165.552490 1764.870605,1389.043579 
	C1764.864136,1397.891724 1763.581299,1406.865601 1761.811035,1415.560547 
	C1757.623657,1436.127930 1747.558960,1453.247681 1729.596436,1464.820923 
	C1715.384033,1473.978149 1699.405396,1477.909424 1682.673462,1478.964722 
	C1678.936401,1479.200439 1675.171753,1478.999268 1671.407959,1478.999268 
	C1671.407959,1487.806763 1671.407959,1495.714478 1671.407959,1504.221436 
	C1681.356689,1503.120728 1690.884277,1502.345947 1700.322754,1500.964111 
	C1720.054077,1498.075684 1737.889038,1490.419556 1752.969849,1477.383423 
	C1777.286865,1456.363525 1788.579102,1428.382446 1788.703979,1397.288208 
	C1789.592285,1176.178833 1789.667603,955.066162 1789.997314,733.954529 
	C1790.018677,719.621765 1789.793091,705.285278 1790.052856,690.957214 
	C1790.368408,673.548401 1787.838745,656.636963 1781.638428,640.392456 
	C1771.893921,614.862549 1755.433350,594.887817 1731.067993,582.120361 
	C1715.318726,573.867676 1698.319702,569.926697 1680.465210,569.996765 
	C1675.081909,570.017883 1669.698242,570.000000 1664.361572,570.000000 
	C1664.765137,551.347900 1661.445801,534.956238 1647.822754,521.398254 
M1052.619873,647.998291 
	C1042.048706,647.332581 1031.475220,646.101074 1020.906982,646.144958 
	C1007.832581,646.199158 994.707031,646.768860 981.704285,648.099976 
	C964.166931,649.895203 946.628723,652.068909 929.263245,655.075684 
	C893.278503,661.306335 859.037537,673.271606 825.972595,688.581848 
	C804.038452,698.738159 782.707947,710.210693 763.290039,724.604065 
	C744.072205,738.849121 724.970825,753.472473 707.391663,769.640442 
	C692.076721,783.725891 678.530884,799.833679 664.970154,815.703125 
	C647.540344,836.100403 633.107910,858.691895 620.441772,882.292053 
	C600.421265,919.595398 585.775696,958.928894 576.659180,1000.371765 
	C569.881409,1031.183228 566.899658,1062.362061 566.156982,1093.770508 
	C565.860229,1106.319824 566.880859,1118.952515 568.080811,1131.472412 
	C569.685425,1148.214844 571.186523,1165.045288 574.261719,1181.552979 
	C580.902893,1217.203125 592.102722,1251.537231 607.258789,1284.500244 
	C627.164124,1327.792480 653.145203,1367.193726 685.744568,1401.898804 
	C700.827881,1417.956421 716.950745,1433.299683 734.140259,1447.043335 
	C751.606140,1461.007935 770.710083,1473.000854 789.559082,1485.139160 
	C813.851746,1500.783081 840.374756,1512.000854 867.502869,1521.646973 
	C895.069458,1531.448853 923.359558,1538.654419 952.481323,1542.001953 
	C970.195618,1544.038208 987.966492,1545.802612 1005.761597,1546.830688 
	C1016.160034,1547.431519 1026.687012,1546.736694 1037.101318,1545.922852 
	C1054.049438,1544.598633 1071.136719,1543.738403 1087.828613,1540.781494 
	C1109.041260,1537.023682 1130.209473,1532.362183 1150.871460,1526.300049 
	C1182.019531,1517.161499 1211.570557,1503.918457 1239.780396,1487.703735 
	C1268.838989,1471.001221 1295.921387,1451.548950 1320.448608,1428.803467 
	C1340.637451,1410.081177 1359.324463,1389.895386 1375.960815,1367.775269 
	C1403.701416,1330.890503 1425.432373,1290.872437 1440.954102,1247.479004 
	C1451.034790,1219.296997 1458.572144,1190.420776 1461.972778,1160.634521 
	C1464.089233,1142.095703 1466.121582,1123.485718 1466.759521,1104.858643 
	C1467.280029,1089.660889 1466.102295,1074.356689 1464.892578,1059.162109 
	C1463.741211,1044.700195 1462.281616,1030.190674 1459.694702,1015.931091 
	C1455.218384,991.257629 1448.744507,967.069397 1440.075317,943.457642 
	C1428.236206,911.212036 1413.163574,880.634583 1394.445435,851.854004 
	C1381.362915,831.738586 1367.312256,812.308350 1350.498047,795.131714 
	C1335.765869,780.081726 1321.206543,764.701111 1305.140991,751.163513 
	C1289.292847,737.809326 1272.313599,725.496216 1254.618652,714.715454 
	C1234.897583,702.700134 1214.278564,691.881470 1193.200684,682.438721 
	C1165.621094,670.083313 1136.758057,660.909546 1106.912842,655.592163 
	C1089.238647,652.443176 1071.351318,650.490295 1052.619873,647.998291 
z"/>
<path fill="#000000" opacity="1.000000" stroke="none" 
	d="
M1410.833374,547.001770 
	C1410.895630,546.567078 1410.957886,546.132446 1411.345215,545.136841 
	C1415.320190,530.053589 1423.504761,518.934570 1437.555176,513.449524 
	C1444.308594,510.813049 1451.923340,509.287048 1459.168701,509.210236 
	C1481.742676,508.970917 1504.327148,509.614014 1526.905884,510.015137 
	C1539.505493,510.238922 1552.101074,510.687622 1564.699463,510.987701 
	C1579.958496,511.351196 1595.232788,512.223633 1610.473877,511.834198 
	C1624.203979,511.483398 1636.686768,514.214600 1647.957886,522.114807 
	C1661.445801,534.956238 1664.765137,551.347900 1664.361572,570.000000 
	C1669.698242,570.000000 1675.081909,570.017883 1680.465210,569.996765 
	C1698.319702,569.926697 1715.318726,573.867676 1731.067993,582.120361 
	C1755.433350,594.887817 1771.893921,614.862549 1781.638428,640.392456 
	C1787.838745,656.636963 1790.368408,673.548401 1790.052856,690.957214 
	C1789.793091,705.285278 1790.018677,719.621765 1789.997314,733.954529 
	C1789.667603,955.066162 1789.592285,1176.178833 1788.703979,1397.288208 
	C1788.579102,1428.382446 1777.286865,1456.363525 1752.969849,1477.383423 
	C1737.889038,1490.419556 1720.054077,1498.075684 1700.322754,1500.964111 
	C1690.884277,1502.345947 1681.356689,1503.120728 1671.407959,1504.221436 
	C1671.407959,1495.714478 1671.407959,1487.806763 1671.407959,1478.999268 
	C1675.171753,1478.999268 1678.936401,1479.200439 1682.673462,1478.964722 
	C1699.405396,1477.909424 1715.384033,1473.978149 1729.596436,1464.820923 
	C1747.558960,1453.247681 1757.623657,1436.127930 1761.811035,1415.560547 
	C1763.581299,1406.865601 1764.864136,1397.891724 1764.870605,1389.043579 
	C1765.035156,1165.552490 1764.987793,942.061218 1765.042358,718.569946 
	C1765.044678,709.116638 1765.990112,699.661621 1765.936279,690.210571 
	C1765.801270,666.477356 1760.284058,644.386780 1745.166260,625.393738 
	C1732.841187,609.909058 1717.138306,599.898560 1697.677856,596.038635 
	C1688.409058,594.200195 1679.160400,593.932617 1669.605957,594.645447 
	C1660.157349,595.350342 1650.512329,593.420593 1640.284668,592.592407 
	C1640.192749,590.600098 1640.072388,588.514893 1640.004395,586.427979 
	C1639.664673,575.983521 1640.357666,565.379395 1638.756104,555.133240 
	C1636.639648,541.592407 1628.604370,536.128784 1614.713989,535.969299 
	C1596.426270,535.759338 1578.140381,535.363159 1559.855103,534.984375 
	C1546.400757,534.705688 1532.949829,534.274414 1519.495361,534.004578 
	C1500.543457,533.624512 1481.590576,533.232666 1462.636353,533.081238 
	C1458.724731,533.049988 1454.699951,533.654297 1450.908447,534.652954 
	C1439.192261,537.738953 1434.707886,546.463501 1434.102905,559.140808 
	C1433.611816,569.432007 1434.003174,579.765320 1434.003174,590.417236 
	C1432.387695,590.641785 1431.129150,590.955444 1429.866699,590.971802 
	C1401.914551,591.334412 1373.962280,591.694153 1346.009277,591.983704 
	C1336.177246,592.085571 1326.342163,591.894958 1316.510742,592.022278 
	C1296.556885,592.280579 1276.602295,592.567078 1256.654297,593.085449 
	C1252.981201,593.180908 1251.808472,591.597534 1251.029053,588.490051 
	C1245.696289,567.228394 1240.363281,545.965454 1234.781372,524.768494 
	C1233.413086,519.572815 1231.641602,514.345642 1229.145630,509.612671 
	C1223.660034,499.209991 1214.205078,495.041229 1202.874634,495.033783 
	C1111.544800,494.973785 1020.215088,495.000031 928.885315,495.000000 
	C886.220337,495.000000 843.555298,494.993652 800.890320,495.004150 
	C787.215820,495.007538 777.481018,502.653107 773.869019,515.986328 
	C768.825745,534.603149 763.726135,553.204895 758.571960,571.791260 
	C756.458008,579.414490 754.139038,586.980835 751.788208,594.999695 
	C749.564026,594.999695 747.593140,594.999695 745.622314,594.999695 
	C622.793762,594.999695 499.965210,595.037720 377.136749,594.955383 
	C360.350250,594.944153 343.563721,594.042053 326.777954,594.065918 
	C299.164612,594.105225 275.635956,603.926636 257.528778,625.100037 
	C246.783844,637.664490 239.983261,652.392273 238.108261,668.869019 
	C236.743973,680.857727 236.115784,692.992065 236.113159,705.061646 
	C236.106979,733.680725 236.943741,762.299866 236.955704,790.919128 
	C237.039398,991.077942 236.924118,1191.236938 237.109802,1391.395508 
	C237.129807,1412.956787 242.303238,1433.407471 256.356873,1450.555054 
	C264.481842,1460.468872 274.899017,1467.471680 286.890930,1472.069946 
	C299.378387,1476.858154 312.297302,1479.225220 325.681946,1479.020996 
	C326.826843,1479.003540 327.974915,1479.192505 329.554474,1479.320801 
	C329.554474,1487.460327 329.554474,1495.487793 329.554474,1503.500366 
	C303.610291,1503.305054 279.087189,1498.711060 257.309204,1484.093628 
	C234.350494,1468.683472 221.239212,1446.681152 216.165787,1419.978882 
	C214.019226,1408.681274 213.136810,1396.981812 213.126892,1385.463745 
	C212.951660,1181.805176 213.041672,978.146423 212.955368,774.487732 
	C212.942322,743.701843 211.773239,712.908997 212.173050,682.132751 
	C212.507248,656.406494 220.263794,632.756775 236.303284,612.203674 
	C254.510834,588.872314 278.711243,575.578369 307.606903,571.304993 
	C319.516937,569.543579 331.805786,570.227234 343.926056,570.037964 
	C355.256195,569.861023 366.591370,569.967834 377.924103,570.006348 
	C473.207367,570.330261 568.490417,570.742615 663.773926,570.943542 
	C685.892578,570.990234 708.012207,570.292175 730.132629,570.040649 
	C732.899170,570.009216 734.283630,569.131897 735.001709,566.345276 
	C739.772217,547.832092 744.545959,529.317200 749.628662,510.888275 
	C752.039673,502.146362 755.047791,493.563904 757.938843,484.960785 
	C761.960815,472.992249 771.632751,466.010651 784.140808,466.009491 
	C929.301819,465.995972 1074.462769,465.984985 1219.623779,466.037292 
	C1229.008179,466.040680 1237.034790,469.566650 1243.757324,477.196655 
	C1245.828613,481.060303 1247.954590,484.308350 1248.983765,487.873047 
	C1256.333740,513.328857 1263.566772,538.820190 1270.537109,564.381958 
	C1271.531372,568.027954 1272.962280,569.155701 1276.554077,569.056213 
	C1293.307129,568.591980 1310.064819,568.265198 1326.822754,568.015259 
	C1353.726929,567.613953 1380.632568,567.312561 1407.537476,566.963196 
	C1408.034790,566.956726 1408.531006,566.878235 1409.248901,566.813477 
	C1409.773560,566.631348 1409.894775,566.380920 1409.888306,565.681885 
	C1409.669189,564.202148 1409.395142,563.082825 1409.121094,561.963501 
	C1409.096069,561.536865 1409.071289,561.110291 1409.342529,560.156982 
	C1409.703613,558.754089 1409.768433,557.877930 1409.833374,557.001770 
	C1409.900757,554.971924 1409.968140,552.942139 1410.337158,550.271240 
	C1410.703613,548.754089 1410.768433,547.877930 1410.833374,547.001770 
z"/>
<path fill="#000000" opacity="1.000000" stroke="none" 
	d="
M1053.089844,647.998901 
	C1071.351318,650.490295 1089.238647,652.443176 1106.912842,655.592163 
	C1136.758057,660.909546 1165.621094,670.083313 1193.200684,682.438721 
	C1214.278564,691.881470 1234.897583,702.700134 1254.618652,714.715454 
	C1272.313599,725.496216 1289.292847,737.809326 1305.140991,751.163513 
	C1321.206543,764.701111 1335.765869,780.081726 1350.498047,795.131714 
	C1367.312256,812.308350 1381.362915,831.738586 1394.445435,851.854004 
	C1413.163574,880.634583 1428.236206,911.212036 1440.075317,943.457642 
	C1448.744507,967.069397 1455.218384,991.257629 1459.694702,1015.931091 
	C1462.281616,1030.190674 1463.741211,1044.700195 1464.892578,1059.162109 
	C1466.102295,1074.356689 1467.280029,1089.660889 1466.759521,1104.858643 
	C1466.121582,1123.485718 1464.089233,1142.095703 1461.972778,1160.634521 
	C1458.572144,1190.420776 1451.034790,1219.296997 1440.954102,1247.479004 
	C1425.432373,1290.872437 1403.701416,1330.890503 1375.960815,1367.775269 
	C1359.324463,1389.895386 1340.637451,1410.081177 1320.448608,1428.803467 
	C1295.921387,1451.548950 1268.838989,1471.001221 1239.780396,1487.703735 
	C1211.570557,1503.918457 1182.019531,1517.161499 1150.871460,1526.300049 
	C1130.209473,1532.362183 1109.041260,1537.023682 1087.828613,1540.781494 
	C1071.136719,1543.738403 1054.049438,1544.598633 1037.101318,1545.922852 
	C1026.687012,1546.736694 1016.160034,1547.431519 1005.761597,1546.830688 
	C987.966492,1545.802612 970.195618,1544.038208 952.481323,1542.001953 
	C923.359558,1538.654419 895.069458,1531.448853 867.502869,1521.646973 
	C840.374756,1512.000854 813.851746,1500.783081 789.559082,1485.139160 
	C770.710083,1473.000854 751.606140,1461.007935 734.140259,1447.043335 
	C716.950745,1433.299683 700.827881,1417.956421 685.744568,1401.898804 
	C653.145203,1367.193726 627.164124,1327.792480 607.258789,1284.500244 
	C592.102722,1251.537231 580.902893,1217.203125 574.261719,1181.552979 
	C571.186523,1165.045288 569.685425,1148.214844 568.080811,1131.472412 
	C566.880859,1118.952515 565.860229,1106.319824 566.156982,1093.770508 
	C566.899658,1062.362061 569.881409,1031.183228 576.659180,1000.371765 
	C585.775696,958.928894 600.421265,919.595398 620.441772,882.292053 
	C633.107910,858.691895 647.540344,836.100403 664.970154,815.703125 
	C678.530884,799.833679 692.076721,783.725891 707.391663,769.640442 
	C724.970825,753.472473 744.072205,738.849121 763.290039,724.604065 
	C782.707947,710.210693 804.038452,698.738159 825.972595,688.581848 
	C859.037537,673.271606 893.278503,661.306335 929.263245,655.075684 
	C946.628723,652.068909 964.166931,649.895203 981.704285,648.099976 
	C994.707031,646.768860 1007.832581,646.199158 1020.906982,646.144958 
	C1031.475220,646.101074 1042.048706,647.332581 1053.089844,647.998901 
M1251.658081,1444.122314 
	C1271.330322,1430.913208 1290.082520,1416.469971 1306.693848,1399.582520 
	C1320.046143,1386.008423 1332.864136,1371.840454 1345.087402,1357.239624 
	C1365.212769,1333.199341 1381.333618,1306.528931 1394.977051,1278.293945 
	C1408.397339,1250.520752 1418.544922,1221.656128 1425.681519,1191.671509 
	C1431.005981,1169.301392 1434.205200,1146.595947 1435.819214,1123.725098 
	C1436.760620,1110.384521 1436.624512,1096.888428 1435.856079,1083.526489 
	C1434.813843,1065.400391 1433.964111,1047.106567 1430.728882,1029.302979 
	C1426.672363,1006.980347 1421.372681,984.742432 1414.628662,963.084717 
	C1405.914551,935.100159 1393.081421,908.734497 1378.180420,883.425171 
	C1364.560181,860.291443 1348.815674,838.681458 1330.974976,818.694519 
	C1321.046753,807.572021 1310.541016,796.815430 1299.277588,787.070740 
	C1283.812988,773.691345 1267.859985,760.763000 1251.250366,748.848450 
	C1228.622803,732.617249 1203.907104,719.881348 1178.227783,709.062500 
	C1134.309814,690.559387 1088.447388,679.873962 1040.995117,677.286987 
	C1013.039856,675.763000 984.955261,676.457764 957.069397,680.833435 
	C935.684998,684.189087 914.588318,688.536438 893.920959,694.932678 
	C863.490601,704.350403 834.399231,716.815125 806.904724,732.989929 
	C771.039978,754.088867 738.644287,779.395386 710.291016,810.001892 
	C692.697510,828.993530 676.771606,849.144897 662.700867,870.829102 
	C647.251648,894.637573 634.619263,919.880432 624.375000,946.312073 
	C608.750793,986.624817 599.779663,1028.495728 597.254944,1071.568604 
	C596.187866,1089.773315 596.992981,1108.169434 598.171570,1126.399414 
	C599.190918,1142.164429 601.509827,1157.887085 604.017273,1173.505859 
	C609.600891,1208.285156 621.014465,1241.309204 635.698853,1273.206543 
	C645.948608,1295.471069 658.251404,1316.609497 672.344482,1336.687744 
	C685.387939,1355.270752 699.619690,1372.917114 715.655518,1388.964355 
	C726.540710,1399.857422 738.162537,1410.038574 749.755981,1420.194580 
	C770.099121,1438.015625 792.647095,1452.758789 816.362976,1465.582397 
	C843.605774,1480.312622 872.095337,1492.098022 901.983887,1500.616821 
	C938.290955,1510.964966 975.332764,1515.858154 1012.917969,1516.845825 
	C1025.131836,1517.166870 1037.437744,1516.127686 1049.621704,1514.910278 
	C1065.862427,1513.287598 1082.295898,1512.086670 1098.154541,1508.518066 
	C1119.173828,1503.787964 1140.014404,1497.809326 1160.397827,1490.811890 
	C1192.723633,1479.714844 1222.870972,1463.946167 1251.658081,1444.122314 
z"/>
<path fill="#47704C" opacity="1.000000" stroke="none" 
	d="
M1647.890381,521.756531 
	C1636.686768,514.214600 1624.203979,511.483398 1610.473877,511.834198 
	C1595.232788,512.223633 1579.958496,511.351196 1564.699463,510.987701 
	C1552.101074,510.687622 1539.505493,510.238922 1526.905884,510.015137 
	C1504.327148,509.614014 1481.742676,508.970917 1459.168701,509.210236 
	C1451.923340,509.287048 1444.308594,510.813049 1437.555176,513.449524 
	C1423.504761,518.934570 1415.320190,530.053589 1411.390869,544.810364 
	C1411.646729,541.834045 1411.739380,538.468689 1412.796753,535.440247 
	C1416.525146,524.761414 1423.823608,517.489807 1433.739380,511.831177 
	C1443.826172,506.074707 1454.385010,505.023224 1465.417358,505.006104 
	C1480.890747,504.982086 1496.368286,504.772369 1511.836792,505.049225 
	C1540.757324,505.566833 1569.673462,506.346130 1598.589478,507.087250 
	C1605.897827,507.274536 1613.341064,506.958771 1620.464966,508.270874 
	C1628.019897,509.662323 1635.396606,512.393250 1642.574463,515.237305 
	C1644.789917,516.114990 1646.098877,519.280334 1647.890381,521.756531 
z"/>
<path fill="#47704C" opacity="1.000000" stroke="none" 
	d="
M1409.027710,566.833374 
	C1408.531006,566.878235 1408.034790,566.956726 1407.537476,566.963196 
	C1380.632568,567.312561 1353.726929,567.613953 1326.822754,568.015259 
	C1310.064819,568.265198 1293.307129,568.591980 1276.554077,569.056213 
	C1272.962280,569.155701 1271.531372,568.027954 1270.537109,564.381958 
	C1263.566772,538.820190 1256.333740,513.328857 1248.983765,487.873047 
	C1247.954590,484.308350 1245.828613,481.060303 1244.048218,477.354248 
	C1249.185059,478.627899 1250.514893,483.441803 1251.944336,487.743805 
	C1255.934937,499.753754 1259.687012,511.850922 1263.191284,524.012146 
	C1266.465454,535.374634 1269.446533,546.827942 1272.258545,558.314209 
	C1273.388550,562.930115 1275.625854,565.140198 1280.524536,565.023499 
	C1310.146851,564.317871 1339.771362,563.699707 1369.396851,563.144653 
	C1379.389648,562.957397 1389.388306,563.096558 1399.382690,562.963623 
	C1402.361084,562.924072 1405.333862,562.466797 1408.715088,562.082153 
	C1409.395142,563.082825 1409.669189,564.202148 1409.749756,565.809326 
	C1409.374512,566.470337 1409.198242,566.649048 1409.027710,566.833374 
z"/>
<path fill="#47704C" opacity="1.000000" stroke="none" 
	d="
M1409.666992,557.177979 
	C1409.768433,557.877930 1409.703613,558.754089 1409.375244,559.837585 
	C1409.241211,559.148010 1409.370972,558.251099 1409.666992,557.177979 
z"/>
<path fill="#47704C" opacity="1.000000" stroke="none" 
	d="
M1410.666992,547.177979 
	C1410.768433,547.877930 1410.703613,548.754089 1410.375244,549.837585 
	C1410.241333,549.148010 1410.370972,548.251099 1410.666992,547.177979 
z"/>
<path fill="#47704C" opacity="1.000000" stroke="none" 
	d="
M1409.248901,566.813477 
	C1409.198242,566.649048 1409.374512,566.470337 1409.695068,566.169800 
	C1409.894775,566.380920 1409.773560,566.631348 1409.248901,566.813477 
z"/>
<path fill="#47704C" opacity="1.000000" stroke="none" 
	d="
M1251.354736,1444.323730 
	C1222.870972,1463.946167 1192.723633,1479.714844 1160.397827,1490.811890 
	C1140.014404,1497.809326 1119.173828,1503.787964 1098.154541,1508.518066 
	C1082.295898,1512.086670 1065.862427,1513.287598 1049.621704,1514.910278 
	C1037.437744,1516.127686 1025.131836,1517.166870 1012.917969,1516.845825 
	C975.332764,1515.858154 938.290955,1510.964966 901.983887,1500.616821 
	C872.095337,1492.098022 843.605774,1480.312622 816.362976,1465.582397 
	C792.647095,1452.758789 770.099121,1438.015625 749.755981,1420.194580 
	C738.162537,1410.038574 726.540710,1399.857422 715.655518,1388.964355 
	C699.619690,1372.917114 685.387939,1355.270752 672.344482,1336.687744 
	C658.251404,1316.609497 645.948608,1295.471069 635.698853,1273.206543 
	C621.014465,1241.309204 609.600891,1208.285156 604.017273,1173.505859 
	C601.509827,1157.887085 599.190918,1142.164429 598.171570,1126.399414 
	C596.992981,1108.169434 596.187866,1089.773315 597.254944,1071.568604 
	C599.779663,1028.495728 608.750793,986.624817 624.375000,946.312073 
	C634.619263,919.880432 647.251648,894.637573 662.700867,870.829102 
	C676.771606,849.144897 692.697510,828.993530 710.291016,810.001892 
	C738.644287,779.395386 771.039978,754.088867 806.904724,732.989929 
	C834.399231,716.815125 863.490601,704.350403 893.920959,694.932678 
	C914.588318,688.536438 935.684998,684.189087 957.069397,680.833435 
	C984.955261,676.457764 1013.039856,675.763000 1040.995117,677.286987 
	C1088.447388,679.873962 1134.309814,690.559387 1178.227783,709.062500 
	C1203.907104,719.881348 1228.622803,732.617249 1251.250366,748.848450 
	C1267.859985,760.763000 1283.812988,773.691345 1299.277588,787.070740 
	C1310.541016,796.815430 1321.046753,807.572021 1330.974976,818.694519 
	C1348.815674,838.681458 1364.560181,860.291443 1378.180420,883.425171 
	C1393.081421,908.734497 1405.914551,935.100159 1414.628662,963.084717 
	C1421.372681,984.742432 1426.672363,1006.980347 1430.728882,1029.302979 
	C1433.964111,1047.106567 1434.813843,1065.400391 1435.856079,1083.526489 
	C1436.624512,1096.888428 1436.760620,1110.384521 1435.819214,1123.725098 
	C1434.205200,1146.595947 1431.005981,1169.301392 1425.681519,1191.671509 
	C1418.544922,1221.656128 1408.397339,1250.520752 1394.977051,1278.293945 
	C1381.333618,1306.528931 1365.212769,1333.199341 1345.087402,1357.239624 
	C1332.864136,1371.840454 1320.046143,1386.008423 1306.693848,1399.582520 
	C1290.082520,1416.469971 1271.330322,1430.913208 1251.354736,1444.323730 
M985.658447,713.001526 
	C972.906372,714.664185 959.988770,715.538025 947.440552,718.171875 
	C927.953857,722.262024 908.424500,726.612976 889.451050,732.567139 
	C865.470581,740.092468 842.718506,750.772522 820.907349,763.456604 
	C796.078369,777.895569 772.772461,794.465942 752.338928,814.537964 
	C737.486755,829.127319 723.695312,844.937500 710.619751,861.161499 
	C690.695435,885.883667 675.560303,913.669312 663.247131,942.855713 
	C653.167908,966.746887 645.545166,991.477905 640.421082,1016.983032 
	C635.690674,1040.528809 632.863159,1064.273804 632.088501,1088.227173 
	C631.364563,1110.615112 632.647888,1132.919434 635.853882,1155.154297 
	C638.827698,1175.778809 643.225708,1196.028564 649.477417,1215.868286 
	C657.048706,1239.895508 667.151428,1262.827637 679.350037,1284.899780 
	C693.248230,1310.046997 709.862732,1333.274902 729.202698,1354.373169 
	C741.180969,1367.440430 754.520325,1379.319458 767.769165,1391.149170 
	C789.957092,1410.960327 815.055908,1426.600098 841.466431,1440.069824 
	C860.607361,1449.832031 880.592346,1457.620972 901.153381,1463.997681 
	C932.868530,1473.833740 965.378479,1479.382446 998.421265,1480.754883 
	C1022.588562,1481.758789 1046.978394,1482.525513 1070.947632,1477.933472 
	C1091.150879,1474.063110 1111.462769,1470.257568 1131.202759,1464.596436 
	C1157.609253,1457.023315 1182.588989,1445.612061 1206.452148,1431.866211 
	C1242.406006,1411.155762 1274.771118,1386.065552 1302.581665,1355.090454 
	C1316.425537,1339.671265 1329.041870,1323.421021 1340.357056,1306.101685 
	C1356.160400,1281.912720 1368.835205,1256.164795 1378.467529,1228.955322 
	C1385.297119,1209.662964 1391.253052,1190.076172 1394.135864,1169.744385 
	C1396.658203,1151.956177 1399.958374,1134.152222 1400.665283,1116.266235 
	C1401.449585,1096.421143 1400.593140,1076.390381 1398.754272,1056.598267 
	C1397.128906,1039.104736 1393.959473,1021.649292 1390.071411,1004.494385 
	C1383.035522,973.450317 1371.190918,944.123413 1356.522949,915.842957 
	C1341.516968,886.910583 1323.168701,860.299377 1301.426758,836.190002 
	C1282.190552,814.859192 1260.990723,795.434570 1237.213867,779.144592 
	C1204.700806,756.869141 1169.718750,739.643311 1131.836426,728.354614 
	C1096.284302,717.760376 1059.979370,712.486511 1022.958435,712.073669 
	C1010.845886,711.938660 998.723694,712.666992 985.658447,713.001526 
z"/>
<path fill="#000000" opacity="1.000000" stroke="none" 
	d="
M986.132202,713.000977 
	C998.723694,712.666992 1010.845886,711.938660 1022.958435,712.073669 
	C1059.979370,712.486511 1096.284302,717.760376 1131.836426,728.354614 
	C1169.718750,739.643311 1204.700806,756.869141 1237.213867,779.144592 
	C1260.990723,795.434570 1282.190552,814.859192 1301.426758,836.190002 
	C1323.168701,860.299377 1341.516968,886.910583 1356.522949,915.842957 
	C1371.190918,944.123413 1383.035522,973.450317 1390.071411,1004.494385 
	C1393.959473,1021.649292 1397.128906,1039.104736 1398.754272,1056.598267 
	C1400.593140,1076.390381 1401.449585,1096.421143 1400.665283,1116.266235 
	C1399.958374,1134.152222 1396.658203,1151.956177 1394.135864,1169.744385 
	C1391.253052,1190.076172 1385.297119,1209.662964 1378.467529,1228.955322 
	C1368.835205,1256.164795 1356.160400,1281.912720 1340.357056,1306.101685 
	C1329.041870,1323.421021 1316.425537,1339.671265 1302.581665,1355.090454 
	C1274.771118,1386.065552 1242.406006,1411.155762 1206.452148,1431.866211 
	C1182.588989,1445.612061 1157.609253,1457.023315 1131.202759,1464.596436 
	C1111.462769,1470.257568 1091.150879,1474.063110 1070.947632,1477.933472 
	C1046.978394,1482.525513 1022.588562,1481.758789 998.421265,1480.754883 
	C965.378479,1479.382446 932.868530,1473.833740 901.153381,1463.997681 
	C880.592346,1457.620972 860.607361,1449.832031 841.466431,1440.069824 
	C815.055908,1426.600098 789.957092,1410.960327 767.769165,1391.149170 
	C754.520325,1379.319458 741.180969,1367.440430 729.202698,1354.373169 
	C709.862732,1333.274902 693.248230,1310.046997 679.350037,1284.899780 
	C667.151428,1262.827637 657.048706,1239.895508 649.477417,1215.868286 
	C643.225708,1196.028564 638.827698,1175.778809 635.853882,1155.154297 
	C632.647888,1132.919434 631.364563,1110.615112 632.088501,1088.227173 
	C632.863159,1064.273804 635.690674,1040.528809 640.421082,1016.983032 
	C645.545166,991.477905 653.167908,966.746887 663.247131,942.855713 
	C675.560303,913.669312 690.695435,885.883667 710.619751,861.161499 
	C723.695312,844.937500 737.486755,829.127319 752.338928,814.537964 
	C772.772461,794.465942 796.078369,777.895569 820.907349,763.456604 
	C842.718506,750.772522 865.470581,740.092468 889.451050,732.567139 
	C908.424500,726.612976 927.953857,722.262024 947.440552,718.171875 
	C959.988770,715.538025 972.906372,714.664185 986.132202,713.000977 
M968.781433,1232.971436 
	C973.909851,1229.425415 979.567017,1226.442871 984.063843,1222.223633 
	C995.804321,1211.208008 1002.487610,1196.612549 1010.430054,1182.942383 
	C1010.662048,1182.543091 1010.459351,1181.891113 1010.459351,1180.982910 
	C1009.571960,1181.458008 1009.046387,1181.580200 1008.769531,1181.910889 
	C1000.612305,1191.651245 992.435486,1201.375977 984.358093,1211.182495 
	C978.596436,1218.177368 972.973877,1225.286743 966.934509,1232.688599 
	C966.864075,1233.025757 966.793701,1233.362793 966.723267,1233.699951 
	C967.172546,1233.494507 967.621887,1233.288940 968.781433,1232.971436 
M873.500854,1109.999023 
	C883.030884,1098.788696 892.573242,1087.588867 902.086975,1076.364624 
	C909.675903,1067.411255 917.227600,1058.426392 924.799988,1049.459106 
	C933.434875,1039.233643 942.050842,1028.992188 950.723755,1018.799072 
	C954.263733,1014.638489 959.014404,1013.041870 964.182190,1014.130737 
	C975.849304,1016.589111 986.602112,1013.753723 996.723389,1008.511719 
	C1004.759094,1004.349976 1012.264893,999.163452 1019.996887,994.417114 
	C1024.026978,991.943176 1028.366333,992.492981 1030.975098,995.976685 
	C1047.095825,1017.504700 1063.159912,1039.075073 1079.304932,1060.584839 
	C1087.249146,1071.168945 1094.992920,1081.783203 1108.241577,1086.816650 
	C1117.809937,1090.451782 1125.388306,1097.362305 1132.329346,1104.832886 
	C1136.846680,1109.694824 1141.382324,1114.539551 1145.898193,1119.402832 
	C1154.363281,1128.519165 1162.789795,1137.671387 1171.292358,1146.752563 
	C1175.816650,1151.584961 1180.466431,1156.299927 1185.560425,1161.587891 
	C1186.681152,1159.315552 1187.367065,1158.038940 1187.953247,1156.718262 
	C1194.049683,1142.979858 1200.131348,1129.234863 1206.214355,1115.490479 
	C1207.672485,1112.195679 1210.017090,1110.347046 1213.763184,1109.927490 
	C1219.647827,1109.268433 1225.616699,1108.710083 1231.319336,1107.224243 
	C1240.878662,1104.733765 1250.313599,1101.718628 1259.694824,1098.604858 
	C1269.144043,1095.468750 1277.221802,1096.909058 1284.033936,1104.480835 
	C1286.883667,1107.648560 1290.062988,1110.517944 1293.056519,1113.558350 
	C1313.610596,1134.434204 1334.151001,1155.323364 1354.715576,1176.188721 
	C1355.707275,1177.194946 1356.885742,1178.017090 1358.137329,1179.058105 
	C1393.243530,1042.585327 1337.572998,865.622192 1178.613647,783.163818 
	C1042.614502,712.615784 851.534973,735.829529 740.242310,877.476501 
	C691.940186,938.952759 668.366699,1009.883057 665.119263,1087.599487 
	C662.970947,1139.012573 674.629456,1190.658447 682.148987,1204.552002 
	C690.996399,1194.936646 699.808594,1185.486938 708.476990,1175.906982 
	C719.697693,1163.506348 730.847412,1151.040649 741.919312,1138.507202 
	C743.971252,1136.184326 745.694519,1136.216431 748.280701,1137.593994 
	C758.507263,1143.041992 768.854248,1148.263672 779.143555,1153.594360 
	C781.291626,1154.707275 783.278870,1155.763916 785.264160,1153.200073 
	C790.819763,1146.025513 796.442139,1138.901978 802.080933,1131.792236 
	C813.646484,1117.209839 825.239746,1102.649414 837.362061,1087.400146 
	C845.870850,1099.507812 854.043579,1111.137329 862.517456,1123.195557 
	C866.285950,1118.632324 869.640503,1114.570435 873.500854,1109.999023 
M1057.998413,1050.525269 
	C1048.718506,1038.237061 1039.438599,1025.948853 1029.410034,1012.669312 
	C1029.217529,1015.166809 1028.925659,1016.293823 1029.079956,1017.356079 
	C1030.779907,1029.057251 1035.975464,1039.277344 1042.453003,1048.984741 
	C1048.949341,1058.720337 1055.401978,1068.489868 1061.590942,1078.420776 
	C1062.575806,1080.000977 1062.073608,1082.508179 1062.360962,1085.730957 
	C1052.068848,1080.961792 1043.422974,1076.955444 1034.776978,1072.948975 
	C1034.545044,1073.344238 1034.313110,1073.739380 1034.081177,1074.134521 
	C1038.932373,1080.132812 1043.558350,1086.332275 1048.694214,1092.075806 
	C1054.515259,1098.585571 1059.593994,1106.790283 1070.661499,1104.198120 
	C1071.473999,1104.007690 1073.405640,1105.896729 1073.812012,1107.145996 
	C1075.440186,1112.150513 1076.763550,1117.261353 1078.027832,1122.375366 
	C1079.756470,1129.367798 1083.368408,1134.719604 1090.219482,1137.634521 
	C1094.605591,1139.500488 1099.188721,1141.161499 1103.120239,1143.764771 
	C1107.021606,1146.348022 1111.493896,1149.358032 1113.468872,1153.305176 
	C1118.262939,1162.886353 1126.132202,1168.542847 1134.745117,1173.999390 
	C1153.416504,1185.827881 1171.830078,1198.062988 1190.346069,1210.136353 
	C1191.822266,1211.098877 1193.275024,1212.097168 1194.738770,1213.078735 
	C1193.418335,1209.394653 1191.353394,1206.634521 1189.348145,1203.831909 
	C1178.892944,1189.219727 1167.415283,1175.211426 1158.293091,1159.808472 
	C1148.743774,1143.684082 1137.868164,1128.957764 1124.486938,1115.965332 
	C1122.940552,1114.463867 1121.705688,1112.610474 1120.049438,1111.259644 
	C1115.654053,1107.674194 1111.469604,1103.599121 1106.539307,1100.952026 
	C1098.177246,1096.462524 1089.476196,1092.417358 1083.519165,1084.850342 
	C1074.851196,1073.839722 1066.794922,1062.347656 1057.998413,1050.525269 
M1093.499146,1222.999023 
	C1075.005493,1200.102539 1056.511841,1177.206177 1037.907715,1154.172974 
	C1034.098022,1159.114502 1034.878662,1163.473755 1037.407715,1167.702026 
	C1039.777222,1171.663452 1042.480225,1175.424927 1044.861084,1179.380005 
	C1048.622070,1185.627686 1052.236450,1191.963501 1056.344727,1199.002075 
	C1051.760864,1199.002075 1048.256958,1199.251709 1044.803101,1198.942383 
	C1039.882324,1198.501587 1038.858276,1201.073608 1038.969238,1205.241821 
	C1039.089355,1209.755249 1042.208618,1211.068848 1045.689209,1211.911011 
	C1049.525879,1212.839355 1053.450684,1213.396973 1057.312988,1214.228027 
	C1059.794067,1214.761963 1061.444336,1215.947632 1061.034546,1218.991577 
	C1060.418335,1223.567261 1060.601318,1228.316406 1059.456787,1232.735962 
	C1058.404175,1236.799805 1059.864380,1238.184570 1063.325806,1238.920532 
	C1072.173340,1240.801147 1073.870850,1242.731812 1075.041260,1251.501587 
	C1075.666138,1256.183472 1078.113647,1259.158691 1083.109375,1260.052490 
	C1087.794189,1260.890747 1092.620483,1261.746216 1096.949341,1263.606812 
	C1107.719604,1268.236450 1118.223633,1273.482788 1128.873779,1278.396484 
	C1132.618164,1280.124023 1136.476685,1281.604004 1140.283203,1283.197021 
	C1140.520264,1282.793213 1140.757324,1282.389404 1140.994385,1281.985474 
	C1125.331299,1262.493286 1109.668335,1243.001099 1093.499146,1222.999023 
M896.624390,1231.885376 
	C903.161194,1235.805542 909.697998,1239.725586 917.499146,1244.403931 
	C915.733643,1237.096069 914.354309,1231.377197 912.970215,1225.659424 
	C909.777893,1212.471436 906.755371,1199.138184 898.002197,1188.268921 
	C892.815918,1181.828979 886.441467,1176.325806 881.435364,1169.765015 
	C871.437866,1156.662720 861.743408,1143.306885 852.465942,1129.686523 
	C847.676086,1122.654175 844.048279,1114.830200 839.606262,1106.844116 
	C832.798462,1115.588623 844.067200,1121.171997 842.653809,1128.309692 
	C838.790161,1129.364990 835.266602,1130.327515 831.743042,1131.289917 
	C831.549500,1131.819824 831.355957,1132.349731 831.162415,1132.879639 
	C836.205444,1136.850586 841.248413,1140.821655 846.562561,1145.006226 
	C844.155945,1147.136475 841.850159,1149.177490 839.014465,1151.687622 
	C858.921936,1157.009399 862.652832,1175.369263 871.641174,1188.909058 
	C864.134949,1193.211304 855.160583,1188.230713 847.392090,1194.438843 
	C857.103943,1198.196533 865.985229,1201.654541 874.885254,1205.063843 
	C877.796204,1206.178955 879.820312,1207.406982 878.466064,1211.263184 
	C877.035461,1215.336792 877.912170,1219.343384 881.565247,1221.979614 
	C886.234497,1225.348999 891.174744,1228.342896 896.624390,1231.885376 
M1310.992920,1149.490967 
	C1309.061279,1147.226929 1307.167236,1144.929688 1305.191772,1142.704468 
	C1295.080200,1131.314697 1284.912476,1119.974487 1274.842651,1108.547974 
	C1271.598389,1104.866577 1268.855469,1104.172119 1266.586182,1105.807495 
	C1281.854248,1123.033813 1292.657349,1143.473389 1306.812378,1162.871460 
	C1303.668823,1163.288208 1301.616211,1163.882202 1299.610596,1163.752319 
	C1296.434814,1163.546875 1294.063110,1164.390137 1292.873779,1167.454834 
	C1291.023804,1172.221558 1290.052124,1177.271973 1293.422607,1181.544922 
	C1296.978760,1186.053223 1300.945435,1190.397827 1305.378906,1194.023804 
	C1318.052734,1204.389526 1334.479614,1205.549072 1349.374878,1211.747070 
	C1350.695557,1207.185425 1352.107056,1203.147705 1352.936890,1198.993896 
	C1353.230713,1197.523071 1352.578613,1195.346436 1351.558838,1194.208252 
	C1338.287354,1179.395020 1324.871948,1164.710571 1310.992920,1149.490967 
M751.373596,1151.122559 
	C747.510986,1148.855957 744.430420,1149.527222 741.418945,1152.992798 
	C730.895325,1165.103149 720.154724,1177.024780 709.551270,1189.066284 
	C707.494629,1191.401978 705.684204,1193.954468 703.760193,1196.406982 
	C704.103638,1196.813721 704.447021,1197.220581 704.790466,1197.627319 
	C708.129517,1195.442261 711.258484,1192.797852 714.846313,1191.156738 
	C726.345337,1185.897095 737.932678,1180.808594 749.644775,1176.044312 
	C758.120850,1172.596558 766.193848,1168.734253 772.741150,1161.598267 
	C765.588318,1158.116699 758.798645,1154.811768 751.373596,1151.122559 
M946.598450,1039.958618 
	C947.058899,1043.455322 949.020752,1041.937866 950.468933,1040.960449 
	C957.010071,1036.545898 963.492065,1032.042847 969.958374,1027.518799 
	C971.698059,1026.301636 973.307800,1024.898682 975.219971,1023.389404 
	C964.029175,1018.127319 958.010315,1018.948242 953.359131,1026.471802 
	C950.854370,1030.523438 949.044617,1035.004639 946.598450,1039.958618 
z"/>
<path fill="#47704C" opacity="1.000000" stroke="none" 
	d="
M873.247925,1110.253784 
	C869.640503,1114.570435 866.285950,1118.632324 862.517456,1123.195557 
	C854.043579,1111.137329 845.870850,1099.507812 837.362061,1087.400146 
	C825.239746,1102.649414 813.646484,1117.209839 802.080933,1131.792236 
	C796.442139,1138.901978 790.819763,1146.025513 785.264160,1153.200073 
	C783.278870,1155.763916 781.291626,1154.707275 779.143555,1153.594360 
	C768.854248,1148.263672 758.507263,1143.041992 748.280701,1137.593994 
	C745.694519,1136.216431 743.971252,1136.184326 741.919312,1138.507202 
	C730.847412,1151.040649 719.697693,1163.506348 708.476990,1175.906982 
	C699.808594,1185.486938 690.996399,1194.936646 682.148987,1204.552002 
	C674.629456,1190.658447 662.970947,1139.012573 665.119263,1087.599487 
	C668.366699,1009.883057 691.940186,938.952759 740.242310,877.476501 
	C851.534973,735.829529 1042.614502,712.615784 1178.613647,783.163818 
	C1337.572998,865.622192 1393.243530,1042.585327 1358.137329,1179.058105 
	C1356.885742,1178.017090 1355.707275,1177.194946 1354.715576,1176.188721 
	C1334.151001,1155.323364 1313.610596,1134.434204 1293.056519,1113.558350 
	C1290.062988,1110.517944 1286.883667,1107.648560 1284.033936,1104.480835 
	C1277.221802,1096.909058 1269.144043,1095.468750 1259.694824,1098.604858 
	C1250.313599,1101.718628 1240.878662,1104.733765 1231.319336,1107.224243 
	C1225.616699,1108.710083 1219.647827,1109.268433 1213.763184,1109.927490 
	C1210.017090,1110.347046 1207.672485,1112.195679 1206.214355,1115.490479 
	C1200.131348,1129.234863 1194.049683,1142.979858 1187.953247,1156.718262 
	C1187.367065,1158.038940 1186.681152,1159.315552 1185.560425,1161.587891 
	C1180.466431,1156.299927 1175.816650,1151.584961 1171.292358,1146.752563 
	C1162.789795,1137.671387 1154.363281,1128.519165 1145.898193,1119.402832 
	C1141.382324,1114.539551 1136.846680,1109.694824 1132.329346,1104.832886 
	C1125.388306,1097.362305 1117.809937,1090.451782 1108.241577,1086.816650 
	C1094.992920,1081.783203 1087.249146,1071.168945 1079.304932,1060.584839 
	C1063.159912,1039.075073 1047.095825,1017.504700 1030.975098,995.976685 
	C1028.366333,992.492981 1024.026978,991.943176 1019.996887,994.417114 
	C1012.264893,999.163452 1004.759094,1004.349976 996.723389,1008.511719 
	C986.602112,1013.753723 975.849304,1016.589111 964.182190,1014.130737 
	C959.014404,1013.041870 954.263733,1014.638489 950.723755,1018.799072 
	C942.050842,1028.992188 933.434875,1039.233643 924.799988,1049.459106 
	C917.227600,1058.426392 909.675903,1067.411255 902.086975,1076.364624 
	C892.573242,1087.588867 883.030884,1098.788696 873.247925,1110.253784 
z"/>
<path fill="#47704C" opacity="1.000000" stroke="none" 
	d="
M1058.238037,1050.793091 
	C1066.794922,1062.347656 1074.851196,1073.839722 1083.519165,1084.850342 
	C1089.476196,1092.417358 1098.177246,1096.462524 1106.539307,1100.952026 
	C1111.469604,1103.599121 1115.654053,1107.674194 1120.049438,1111.259644 
	C1121.705688,1112.610474 1122.940552,1114.463867 1124.486938,1115.965332 
	C1137.868164,1128.957764 1148.743774,1143.684082 1158.293091,1159.808472 
	C1167.415283,1175.211426 1178.892944,1189.219727 1189.348145,1203.831909 
	C1191.353394,1206.634521 1193.418335,1209.394653 1194.738770,1213.078735 
	C1193.275024,1212.097168 1191.822266,1211.098877 1190.346069,1210.136353 
	C1171.830078,1198.062988 1153.416504,1185.827881 1134.745117,1173.999390 
	C1126.132202,1168.542847 1118.262939,1162.886353 1113.468872,1153.305176 
	C1111.493896,1149.358032 1107.021606,1146.348022 1103.120239,1143.764771 
	C1099.188721,1141.161499 1094.605591,1139.500488 1090.219482,1137.634521 
	C1083.368408,1134.719604 1079.756470,1129.367798 1078.027832,1122.375366 
	C1076.763550,1117.261353 1075.440186,1112.150513 1073.812012,1107.145996 
	C1073.405640,1105.896729 1071.473999,1104.007690 1070.661499,1104.198120 
	C1059.593994,1106.790283 1054.515259,1098.585571 1048.694214,1092.075806 
	C1043.558350,1086.332275 1038.932373,1080.132812 1034.081177,1074.134521 
	C1034.313110,1073.739380 1034.545044,1073.344238 1034.776978,1072.948975 
	C1043.422974,1076.955444 1052.068848,1080.961792 1062.360962,1085.730957 
	C1062.073608,1082.508179 1062.575806,1080.000977 1061.590942,1078.420776 
	C1055.401978,1068.489868 1048.949341,1058.720337 1042.453003,1048.984741 
	C1035.975464,1039.277344 1030.779907,1029.057251 1029.079956,1017.356079 
	C1028.925659,1016.293823 1029.217529,1015.166809 1029.410034,1012.669312 
	C1039.438599,1025.948853 1048.718506,1038.237061 1058.238037,1050.793091 
z"/>
<path fill="#47704C" opacity="1.000000" stroke="none" 
	d="
M1093.752197,1223.253906 
	C1109.668335,1243.001099 1125.331299,1262.493286 1140.994385,1281.985474 
	C1140.757324,1282.389404 1140.520264,1282.793213 1140.283203,1283.197021 
	C1136.476685,1281.604004 1132.618164,1280.124023 1128.873779,1278.396484 
	C1118.223633,1273.482788 1107.719604,1268.236450 1096.949341,1263.606812 
	C1092.620483,1261.746216 1087.794189,1260.890747 1083.109375,1260.052490 
	C1078.113647,1259.158691 1075.666138,1256.183472 1075.041260,1251.501587 
	C1073.870850,1242.731812 1072.173340,1240.801147 1063.325806,1238.920532 
	C1059.864380,1238.184570 1058.404175,1236.799805 1059.456787,1232.735962 
	C1060.601318,1228.316406 1060.418335,1223.567261 1061.034546,1218.991577 
	C1061.444336,1215.947632 1059.794067,1214.761963 1057.312988,1214.228027 
	C1053.450684,1213.396973 1049.525879,1212.839355 1045.689209,1211.911011 
	C1042.208618,1211.068848 1039.089355,1209.755249 1038.969238,1205.241821 
	C1038.858276,1201.073608 1039.882324,1198.501587 1044.803101,1198.942383 
	C1048.256958,1199.251709 1051.760864,1199.002075 1056.344727,1199.002075 
	C1052.236450,1191.963501 1048.622070,1185.627686 1044.861084,1179.380005 
	C1042.480225,1175.424927 1039.777222,1171.663452 1037.407715,1167.702026 
	C1034.878662,1163.473755 1034.098022,1159.114502 1037.907715,1154.172974 
	C1056.511841,1177.206177 1075.005493,1200.102539 1093.752197,1223.253906 
z"/>
<path fill="#47704C" opacity="1.000000" stroke="none" 
	d="
M896.311279,1231.692017 
	C891.174744,1228.342896 886.234497,1225.348999 881.565247,1221.979614 
	C877.912170,1219.343384 877.035461,1215.336792 878.466064,1211.263184 
	C879.820312,1207.406982 877.796204,1206.178955 874.885254,1205.063843 
	C865.985229,1201.654541 857.103943,1198.196533 847.392090,1194.438843 
	C855.160583,1188.230713 864.134949,1193.211304 871.641174,1188.909058 
	C862.652832,1175.369263 858.921936,1157.009399 839.014465,1151.687622 
	C841.850159,1149.177490 844.155945,1147.136475 846.562561,1145.006226 
	C841.248413,1140.821655 836.205444,1136.850586 831.162415,1132.879639 
	C831.355957,1132.349731 831.549500,1131.819824 831.743042,1131.289917 
	C835.266602,1130.327515 838.790161,1129.364990 842.653809,1128.309692 
	C844.067200,1121.171997 832.798462,1115.588623 839.606262,1106.844116 
	C844.048279,1114.830200 847.676086,1122.654175 852.465942,1129.686523 
	C861.743408,1143.306885 871.437866,1156.662720 881.435364,1169.765015 
	C886.441467,1176.325806 892.815918,1181.828979 898.002197,1188.268921 
	C906.755371,1199.138184 909.777893,1212.471436 912.970215,1225.659424 
	C914.354309,1231.377197 915.733643,1237.096069 917.499146,1244.403931 
	C909.697998,1239.725586 903.161194,1235.805542 896.311279,1231.692017 
z"/>
<path fill="#47704C" opacity="1.000000" stroke="none" 
	d="
M1311.242920,1149.742432 
	C1324.871948,1164.710571 1338.287354,1179.395020 1351.558838,1194.208252 
	C1352.578613,1195.346436 1353.230713,1197.523071 1352.936890,1198.993896 
	C1352.107056,1203.147705 1350.695557,1207.185425 1349.374878,1211.747070 
	C1334.479614,1205.549072 1318.052734,1204.389526 1305.378906,1194.023804 
	C1300.945435,1190.397827 1296.978760,1186.053223 1293.422607,1181.544922 
	C1290.052124,1177.271973 1291.023804,1172.221558 1292.873779,1167.454834 
	C1294.063110,1164.390137 1296.434814,1163.546875 1299.610596,1163.752319 
	C1301.616211,1163.882202 1303.668823,1163.288208 1306.812378,1162.871460 
	C1292.657349,1143.473389 1281.854248,1123.033813 1266.586182,1105.807495 
	C1268.855469,1104.172119 1271.598389,1104.866577 1274.842651,1108.547974 
	C1284.912476,1119.974487 1295.080200,1131.314697 1305.191772,1142.704468 
	C1307.167236,1144.929688 1309.061279,1147.226929 1311.242920,1149.742432 
z"/>
<path fill="#47704C" opacity="1.000000" stroke="none" 
	d="
M751.691284,1151.314697 
	C758.798645,1154.811768 765.588318,1158.116699 772.741150,1161.598267 
	C766.193848,1168.734253 758.120850,1172.596558 749.644775,1176.044312 
	C737.932678,1180.808594 726.345337,1185.897095 714.846313,1191.156738 
	C711.258484,1192.797852 708.129517,1195.442261 704.790466,1197.627319 
	C704.447021,1197.220581 704.103638,1196.813721 703.760193,1196.406982 
	C705.684204,1193.954468 707.494629,1191.401978 709.551270,1189.066284 
	C720.154724,1177.024780 730.895325,1165.103149 741.418945,1152.992798 
	C744.430420,1149.527222 747.510986,1148.855957 751.691284,1151.314697 
z"/>
<path fill="#47704C" opacity="1.000000" stroke="none" 
	d="
M967.289307,1232.345093 
	C972.973877,1225.286743 978.596436,1218.177368 984.358093,1211.182495 
	C992.435486,1201.375977 1000.612305,1191.651245 1008.769531,1181.910889 
	C1009.046387,1181.580200 1009.571960,1181.458008 1010.459351,1180.982910 
	C1010.459351,1181.891113 1010.662048,1182.543091 1010.430054,1182.942383 
	C1002.487610,1196.612549 995.804321,1211.208008 984.063843,1222.223633 
	C979.567017,1226.442871 973.909851,1229.425415 968.230957,1232.842773 
	C967.550049,1232.591187 967.419678,1232.468140 967.289307,1232.345093 
z"/>
<path fill="#47704C" opacity="1.000000" stroke="none" 
	d="
M946.759888,1039.625244 
	C949.044617,1035.004639 950.854370,1030.523438 953.359131,1026.471802 
	C958.010315,1018.948242 964.029175,1018.127319 975.219971,1023.389404 
	C973.307800,1024.898682 971.698059,1026.301636 969.958374,1027.518799 
	C963.492065,1032.042847 957.010071,1036.545898 950.468933,1040.960449 
	C949.020752,1041.937866 947.058899,1043.455322 946.759888,1039.625244 
z"/>
<path fill="#47704C" opacity="1.000000" stroke="none" 
	d="
M967.875793,1232.898804 
	C967.621887,1233.288940 967.172546,1233.494507 966.723267,1233.699951 
	C966.793701,1233.362793 966.864075,1233.025757 967.111938,1232.516846 
	C967.419678,1232.468140 967.550049,1232.591187 967.875793,1232.898804 
z"/>
</svg>